<?xml version="1.0" encoding="UTF-8"?>
<svg version="1.1" xmlns="http://www.w3.org/2000/svg" width="800" height="600">
<path d="M0 0 C1.55545532 0.00628418 1.55545532 0.00628418 3.14233398 0.01269531 C41.45315177 0.563298 74.87337436 16.01402508 102.03125 42.7421875 C119.55007543 61.59396703 138.38005895 87.95919385 137.81640625 114.7890625 C137.47254023 118.20656175 136.56267181 120.5265464 134.5625 123.3125 C131.40743089 125.70600071 128.4307349 125.77668819 124.5625 125.3125 C116.48611322 121.61082273 113.40397543 113.07382492 109.69921875 105.50415039 C94.63226581 74.72669946 70.63623969 47.23410145 37.796875 35.33984375 C12.57649673 27.32902312 -13.05158704 28.23432906 -36.90625 40.02734375 C-45.72146045 44.69185079 -53.0906881 50.61245008 -60.4375 57.3125 C-61.48744141 58.23869141 -61.48744141 58.23869141 -62.55859375 59.18359375 C-73.38627689 69.23959346 -80.11471032 83.77785221 -80.75 98.5 C-80.67104971 102.59106049 -79.81964209 106.38654714 -78.9375 110.375 C-76.85083058 120.23202886 -75.07546182 131.30584907 -80.4375 140.3125 C-82.82358843 143.23738259 -84.51539574 144.18716544 -88.25390625 144.6953125 C-92.89976768 144.8663258 -96.34980518 144.88964419 -100.5 142.6875 C-105.15361928 136.98306346 -106.33278977 130.84037538 -107.75 123.8125 C-112.64942789 101.15241287 -124.00821298 82.13367165 -143.09765625 68.44921875 C-165.46946952 54.13649143 -190.78909816 50.8061376 -216.71484375 56.40625 C-238.0826373 61.60806333 -255.86169519 72.82199649 -267.59765625 91.6796875 C-279.01808857 111.17421349 -282.18172901 133.32434989 -286.4375 155.3125 C-207.2375 155.3125 -128.0375 155.3125 -46.4375 155.3125 C-46.4375 165.5425 -46.4375 175.7725 -46.4375 186.3125 C-52.7075 186.3125 -58.9775 186.3125 -65.4375 186.3125 C-66.0975 189.2825 -66.7575 192.2525 -67.4375 195.3125 C-68.92143239 199.84158533 -70.68360443 204.25654255 -72.4375 208.6875 C-72.68082062 209.30266479 -72.92414124 209.91782959 -73.17483521 210.55163574 C-87.19488933 245.82248512 -108.06964139 270.59569631 -140.4375 290.3125 C-139.32632813 291.01375 -138.21515625 291.715 -137.0703125 292.4375 C-113.79759666 307.22788199 -92.94370281 324.32319036 -86.00390625 352.3203125 C-82.14024564 372.73109889 -85.50902308 393.81201339 -96.48828125 411.53125 C-99.7513098 416.18711438 -103.4329671 420.28689062 -107.4375 424.3125 C-108.02789062 424.93769531 -108.61828125 425.56289063 -109.2265625 426.20703125 C-122.16152826 438.82859476 -142.63238657 444.40532873 -160.1796875 444.515625 C-160.90632599 444.52132507 -161.63296448 444.52702515 -162.38162231 444.53289795 C-163.9161842 444.54229519 -165.45076579 444.54886079 -166.98535156 444.55273438 C-169.27187059 444.5623295 -171.55744544 444.59335565 -173.84375 444.625 C-207.36740919 444.86631571 -237.32910598 432.37459843 -261.4375 409.3125 C-262.03691406 408.76464844 -262.63632812 408.21679688 -263.25390625 407.65234375 C-306.45330014 366.85848455 -315.6051551 296.26234524 -317.37042236 240.10552979 C-317.80083963 222.18348746 -317.56402653 204.23709237 -317.4375 186.3125 C-324.3675 186.3125 -331.2975 186.3125 -338.4375 186.3125 C-338.4375 176.0825 -338.4375 165.8525 -338.4375 155.3125 C-331.5075 155.3125 -324.5775 155.3125 -317.4375 155.3125 C-317.31375 152.528125 -317.31375 152.528125 -317.1875 149.6875 C-314.9451923 119.9096537 -306.10744544 86.76719976 -285.4375 64.3125 C-284.75429688 63.50167969 -284.07109375 62.69085938 -283.3671875 61.85546875 C-264.32689197 39.64179063 -236.77813544 26.88612945 -207.75244141 24.45751953 C-176.19113441 22.48036109 -143.71038128 27.23252442 -119.08203125 48.796875 C-113.75729041 53.86206422 -108.56005405 59.04335458 -103.4375 64.3125 C-102.82003906 63.34570312 -102.20257813 62.37890625 -101.56640625 61.3828125 C-96.40863604 53.41105978 -91.08049004 46.13937904 -84.4375 39.3125 C-83.69242188 38.50554687 -82.94734375 37.69859375 -82.1796875 36.8671875 C-61.10614119 14.68084667 -30.80212712 -0.17317442 0 0 Z M-287.4375 186.3125 C-287.5459928 217.19977756 -287.5459928 217.19977756 -286.5 248 C-286.41125061 249.74409714 -286.3233671 251.48823854 -286.23632812 253.23242188 C-285.78905944 261.94257669 -285.18995676 270.62258055 -284.4375 279.3125 C-275.89006989 279.35955712 -267.34269695 279.39473116 -258.79516792 279.41612434 C-254.82303304 279.42640974 -250.85098891 279.44027633 -246.87890625 279.46337891 C-205.48859223 279.69760009 -162.53601137 279.86295677 -131.015625 248.92578125 C-130.16484375 248.06339844 -129.3140625 247.20101562 -128.4375 246.3125 C-127.77234375 245.64605469 -127.1071875 244.97960937 -126.421875 244.29296875 C-118.82345906 236.16403278 -113.68910433 225.97897907 -108.4375 216.25 C-108.05875732 215.56252686 -107.68001465 214.87505371 -107.28979492 214.16674805 C-102.51905731 205.14824405 -99.27999498 195.91873744 -95.4375 186.3125 C-158.7975 186.3125 -222.1575 186.3125 -287.4375 186.3125 Z M-189.98901367 306.79125977 C-196.27744128 307.32696045 -202.55667964 307.62206689 -208.86328125 307.83984375 C-210.59956535 307.90183205 -210.59956535 307.90183205 -212.3709259 307.96507263 C-225.78590732 308.42319346 -239.20439361 308.65519596 -252.625 308.875 C-255.1516969 308.91837607 -257.67838965 308.96199495 -260.20507812 309.00585938 C-266.28250735 309.11085362 -272.35997975 309.21292115 -278.4375 309.3125 C-278.13730931 310.87997823 -277.83333543 312.44673215 -277.52783203 314.01318359 C-277.35897491 314.88574799 -277.1901178 315.75831238 -277.0161438 316.65731812 C-276.09947038 320.8635926 -274.74896344 324.88402901 -273.3125 328.9375 C-273.00755615 329.80068848 -272.7026123 330.66387695 -272.38842773 331.55322266 C-269.38069047 339.83270027 -265.64298939 347.58458484 -261.4375 355.3125 C-261.1060498 355.93382812 -260.77459961 356.55515625 -260.43310547 357.1953125 C-256.14764495 365.20097984 -251.41130477 372.45620134 -245.4375 379.3125 C-244.715625 380.15554688 -243.99375 380.99859375 -243.25 381.8671875 C-226.93780439 400.5016054 -206.03188102 412.76601151 -181.04052734 414.4765625 C-162.1330215 415.3637182 -143.94301435 413.07163758 -128.609375 401.10546875 C-119.92182258 392.89256737 -115.6283943 383.64656973 -115.05200195 371.75683594 C-114.64293064 355.47848625 -121.65177109 343.39238461 -132.57006836 331.78417969 C-144.63658403 319.3801253 -161.24158656 306.43834135 -179.1875 306.125 C-182.80603808 306.21597828 -186.38484252 306.46223284 -189.98901367 306.79125977 Z " fill="#000000" transform="translate(603.4375,65.6875)"/>
<path d="M0 0 C5.9271639 5.5904939 9.92425123 11.32269285 13.30078125 18.71484375 C13.67847656 19.52695313 14.05617187 20.3390625 14.4453125 21.17578125 C29.49102457 56.00068784 21.00336673 104.30562373 18.0546875 140.984375 C17.99886568 141.67953846 17.94304386 142.37470192 17.88553047 143.09093094 C17.27595007 150.6512156 16.64015913 158.20881199 15.9777832 165.76464844 C14.33771914 184.79336252 13.06644383 203.7567142 15.48828125 222.77734375 C15.62065186 223.85749756 15.75302246 224.93765137 15.8894043 226.05053711 C17.25573448 236.4848194 19.43298009 246.59645603 22.30078125 256.71484375 C22.57535156 257.73723145 22.57535156 257.73723145 22.85546875 258.78027344 C27.4264828 275.38332266 36.77991761 292.43354829 46.30078125 306.71484375 C45.92578125 309.40234375 45.92578125 309.40234375 45.30078125 311.71484375 C35.66882035 312.53887082 29.419052 310.65622817 21.76953125 304.765625 C-2.66039917 283.76644098 -11.26396328 253.35641541 -16.69921875 222.71484375 C-16.94696045 221.36036133 -16.94696045 221.36036133 -17.19970703 219.97851562 C-22.84507779 188.24300846 -19.17890625 155.45781888 -15.03125 123.7265625 C-14.7331753 121.02284962 -14.63296211 118.43136587 -14.69921875 115.71484375 C-15.52421875 116.21113281 -16.34921875 116.70742188 -17.19921875 117.21875 C-43.28578622 132.67008347 -71.82984012 140.3622549 -102.1015625 133.6796875 C-113.66170377 130.57941074 -123.00513619 125.54978551 -132.69921875 118.71484375 C-133.38757813 118.23402344 -134.0759375 117.75320313 -134.78515625 117.2578125 C-148.93707371 106.26183907 -157.3905827 88.10112059 -159.69921875 70.71484375 C-161.02025038 47.02315078 -158.34909456 22.86840048 -142.484375 4.09375 C-129.12333888 -10.13347971 -110.88598466 -17.25857055 -91.69921875 -19.28515625 C-90.66667969 -19.39472656 -89.63414062 -19.50429687 -88.5703125 -19.6171875 C-58.740553 -22.30940406 -23.81242361 -20.15957716 0 0 Z M-119.24609375 25.0078125 C-129.06610309 36.54368368 -130.75583339 50.08366596 -129.69921875 64.71484375 C-127.96772736 76.90742895 -122.52948789 88.07983997 -112.69921875 95.71484375 C-97.01185815 106.18010311 -79.13958117 107.80573039 -60.94921875 104.52734375 C-43.7304005 100.62392521 -25.9148117 92.82413393 -15.69921875 77.71484375 C-9.30871174 66.04926369 -9.1027833 53.10745206 -12.73046875 40.4609375 C-17.12270551 28.01036315 -24.96117973 21.16486122 -36.55078125 15.2578125 C-47.34300356 10.81693982 -58.68102669 10.23690062 -70.19921875 10.33984375 C-72.14634766 10.32244141 -72.14634766 10.32244141 -74.1328125 10.3046875 C-90.11712766 10.35259254 -107.2306759 13.50820804 -119.24609375 25.0078125 Z " fill="#000000" transform="translate(221.69921875,223.28515625)"/>
</svg>
